# xmcd
#
# Track frame offsets: 
#        150
#        23033
#        44865
#        62813
#        83066
#        102566
#        124636
#        143883
#        165693
#        187326
#        215043
#        236768
#        252524
#
# Disc length: 3596 seconds
#
# Revision: 0
# Processed by: cddbd v1.5.2PL0 Copyright (c) Steve Scherf et al.
# Submitted via: ExactAudioCopy v0.99pb5
#
DISCID=ca0e0a0d
DTITLE=Jimmy Carpenter - Walk Away
DYEAR=2014
DGENRE=Blues
TTITLE0=Can't Let Go
TTITLE1=Walk Away
TTITLE2=When You're Ready
TTITLE3=She's Not You
TTITLE4=7th Street Shuffle
TTITLE5=No One's Ever
TTITLE6=More Than Meets The Eye
TTITLE7=Hard To Be Cool
TTITLE8=Crazy 'Bout You
TTITLE9=C King Blues
TTITLE10=Favorite Muse
TTITLE11=On The Outside
TTITLE12=Fellow Traveler
EXTD=
EXTT0=
EXTT1=
EXTT2=
EXTT3=
EXTT4=
EXTT5=
EXTT6=
EXTT7=
EXTT8=
EXTT9=
EXTT10=
EXTT11=
EXTT12=
PLAYORDER=
